<svg viewBox="0 0 100 100" xmlns="http://www.w3.org/2000/svg" role="img" aria-label="AMH Solutions">
  <rect width="100" height="100" rx="18" fill="#FAF8F4"/>
  <g transform="translate(4 25) scale(0.85)">
    <rect x="4" y="14" width="100" height="4" rx="1.5" fill="#0B1733"/>
    <path d="M10 50 A14 14 0 0 1 38 50" stroke="#0B1733" stroke-width="4" fill="none"/>
    <path d="M40 50 A14 14 0 0 1 68 50" stroke="#0B1733" stroke-width="4" fill="none"/>
    <path d="M70 50 A14 14 0 0 1 98 50" stroke="#0B1733" stroke-width="4" fill="none"/>
    <rect x="9" y="18" width="3" height="32" fill="#0B1733"/>
    <rect x="36" y="18" width="3" height="32" fill="#0B1733"/>
    <rect x="39" y="18" width="3" height="32" fill="#0B1733"/>
    <rect x="66" y="18" width="3" height="32" fill="#0B1733"/>
    <rect x="69" y="18" width="3" height="32" fill="#0B1733"/>
    <rect x="96" y="18" width="3" height="32" fill="#0B1733"/>
    <rect x="48" y="6" width="14" height="6" rx="1.5" fill="#3B82F6"/>
  </g>
</svg>
